name C:\Users\u0150099\Documents\master_thesis\3dpredictsim\Results\debug\Fal_s1_mtjc2_sc_cspx10_oy2_MTc2_MTPm_k1_d01_MTJm_nl_MG_exp5_table_d01_PF_Natali2010_ls146_ig21.mot
datacolumns 128
datarows 4
range 1.71095256 1.74517161
endheader
time	pelvis_tilt	pelvis_list	pelvis_rotation	pelvis_tx	pelvis_ty	pelvis_tz	hip_flexion_l	hip_adduction_l	hip_rotation_l	hip_flexion_r	hip_adduction_r	hip_rotation_r	knee_angle_l	knee_angle_r	ankle_angle_l	ankle_angle_r	subtalar_angle_l	subtalar_angle_r	mtj_angle_l	mtj_angle_r	mtp_angle_l	mtp_angle_r	lumbar_extension	lumbar_bending	lumbar_rotation	arm_flex_l	arm_add_l	arm_rot_l	arm_flex_r	arm_add_r	arm_rot_r	elbow_flex_l	elbow_flex_r	pro_sup_l	pro_sup_r	glut_med1_l/activation	glut_med2_l/activation	glut_med3_l/activation	glut_min1_l/activation	glut_min2_l/activation	glut_min3_l/activation	semimem_l/activation	semiten_l/activation	bifemlh_l/activation	bifemsh_l/activation	sar_l/activation	add_long_l/activation	add_brev_l/activation	add_mag1_l/activation	add_mag2_l/activation	add_mag3_l/activation	tfl_l/activation	pect_l/activation	grac_l/activation	glut_max1_l/activation	glut_max2_l/activation	glut_max3_l/activation	iliacus_l/activation	psoas_l/activation	quad_fem_l/activation	gem_l/activation	peri_l/activation	rect_fem_l/activation	vas_med_l/activation	vas_int_l/activation	vas_lat_l/activation	med_gas_l/activation	lat_gas_l/activation	soleus_l/activation	tib_post_l/activation	flex_dig_l/activation	flex_hal_l/activation	tib_ant_l/activation	per_brev_l/activation	per_long_l/activation	per_tert_l/activation	ext_dig_l/activation	ext_hal_l/activation	ercspn_l/activation	intobl_l/activation	extobl_l/activation	glut_med1_r/activation	glut_med2_r/activation	glut_med3_r/activation	glut_min1_r/activation	glut_min2_r/activation	glut_min3_r/activation	semimem_r/activation	semiten_r/activation	bifemlh_r/activation	bifemsh_r/activation	sar_r/activation	add_long_r/activation	add_brev_r/activation	add_mag1_r/activation	add_mag2_r/activation	add_mag3_r/activation	tfl_r/activation	pect_r/activation	grac_r/activation	glut_max1_r/activation	glut_max2_r/activation	glut_max3_r/activation	iliacus_r/activation	psoas_r/activation	quad_fem_r/activation	gem_r/activation	peri_r/activation	rect_fem_r/activation	vas_med_r/activation	vas_int_r/activation	vas_lat_r/activation	med_gas_r/activation	lat_gas_r/activation	soleus_r/activation	tib_post_r/activation	flex_dig_r/activation	flex_hal_r/activation	tib_ant_r/activation	per_brev_r/activation	per_long_r/activation	per_tert_r/activation	ext_dig_r/activation	ext_hal_r/activation	ercspn_r/activation	intobl_r/activation	extobl_r/activation	
          1.71095256	         -2.92915661	          3.32051527	         -8.87815927	          2.27556690	          0.89491353	          0.01018364	         32.84286741	          0.70491886	         -9.82328398	         -8.55819405	         -1.06131399	         -5.41852838	        -13.78755095	        -24.40970861	          8.47309902	          5.14074436	         -6.93282278	        -15.81191336	          3.35974946	          2.66237070	         -5.18792833	         22.55229854	         -5.15857087	         -0.99901598	          1.44459470	         -4.44501508	        -13.46212965	         11.35008453	          7.48950428	        -13.74764298	         18.94299105	         17.52956128	         43.12721640	         86.51662706	         86.51662706	          0.05000033	          0.05000053	          0.05000999	          0.05000036	          0.05000048	          0.05000264	          0.23888795	          0.07081778	          0.07081787	          0.07902551	          0.14206732	          0.10834300	          0.15497090	          0.08865405	          0.05000970	          0.11472138	          0.05941929	          0.07246834	          0.14197350	          0.05000295	          0.05000342	          0.14235350	          0.16907220	          0.16907365	          0.36468329	          0.09755663	          0.05000676	          0.05000014	          0.05000020	          0.05000019	          0.05000016	          0.09488860	          0.08169304	          0.05000008	          0.05000100	          0.05000050	          0.05000047	          0.41275505	          0.23469405	          0.19330382	          0.38996598	          0.60530653	          0.40897664	          0.08942399	          0.17031360	          0.05057101	          0.20641536	          0.05000043	          0.05000021	          0.41783698	          0.13150946	          0.05952004	          0.05000188	          0.05000024	          0.05000025	          0.05000012	          0.05000119	          0.16948141	          0.05000076	          0.05000222	          0.05002127	          0.11639388	          0.32953710	          0.05000490	          0.05000046	          0.05001046	          0.05000526	          0.05000236	          0.05801469	          0.17989067	          0.05000017	          0.05000046	          0.05000064	          0.61023721	          0.14241020	          0.15447774	          0.12489929	          0.43729145	          0.62323998	          0.31063739	          0.19480135	          0.78341821	          0.34017706	          0.05000003	          0.44390772	          0.32491413	          0.05000019	          0.05950535	          0.08428075	          0.05000023	          0.05000010	          0.05000009	
          1.72235891	         -2.93005408	          3.42100627	         -9.29914839	          2.29392204	          0.89345576	          0.00966100	         33.02968646	          0.88962158	         -9.83155128	        -10.17925075	         -1.52769870	         -5.98995657	        -14.95476732	        -23.20999648	          8.13137176	          4.05331988	         -7.12850462	        -16.17639099	          3.38213526	          1.84741711	         -4.80518263	         24.09281680	         -4.96603488	         -1.13588592	          1.62159078	         -5.87665279	        -13.45306558	         10.77444557	          7.38796482	        -13.70995029	         19.16811032	         17.62669756	         44.80525734	         86.51662706	         86.51662706	          0.05000294	          0.05000160	          0.05000016	          0.05950530	          0.05950511	          0.05000184	          0.20072836	          0.05950555	          0.05950556	          0.06640215	          0.11937477	          0.23146630	          0.22283685	          0.07449531	          0.05000149	          0.15436340	          0.05000046	          0.09937706	          0.11929536	          0.05000035	          0.05000016	          0.20910255	          0.14206575	          0.14206679	          0.53551533	          0.24223687	          0.05000053	          0.05000005	          0.05000005	          0.05000005	          0.05000004	          0.07973124	          0.06864354	          0.05046407	          0.05950462	          0.05950527	          0.05950527	          0.41764451	          0.27263973	          0.24694527	          0.32767462	          0.68329048	          0.38368903	          0.07555737	          0.16068876	          0.05952747	          0.17344307	          0.05000022	          0.05000010	          0.35109257	          0.11050261	          0.05001263	          0.05000435	          0.05000030	          0.05000026	          0.05000022	          0.05000092	          0.14331836	          0.35431203	          0.05000093	          0.05001733	          0.12590965	          0.27689790	          0.05002285	          0.05000043	          0.05000363	          0.05000216	          0.05000151	          0.05879901	          0.29320179	          0.05000008	          0.05000032	          0.05000049	          0.51275897	          0.12845337	          0.13121985	          0.10517998	          0.42781713	          0.62769968	          0.27063042	          0.16368407	          0.84203119	          0.30071673	          0.12498478	          0.40187226	          0.27301291	          0.05106178	          0.05000009	          0.07081787	          0.05000003	          0.05000003	          0.05000011	
          1.73376526	         -2.92789625	          3.50213550	         -9.66797828	          2.31258456	          0.89204695	          0.00906443	         33.21034602	          1.04673736	         -9.84268659	        -11.66378842	         -1.99352160	         -6.52747244	        -16.81214913	        -22.28441417	          7.36508297	          2.89909107	         -7.30873570	        -16.50557370	          3.39087455	          0.84775269	         -4.29929154	         25.70262933	         -4.76751571	         -1.26127042	          1.79417047	         -7.33752596	        -13.44970830	         10.44882922	          7.19094688	        -13.67509717	         19.30785329	         17.81834133	         46.46279074	         86.51662706	         86.51662706	          0.05000004	          0.05000009	          0.05000160	          0.05000015	          0.05000014	          0.05000020	          0.16866431	          0.05000025	          0.05000025	          0.05579519	          0.10030626	          0.19449243	          0.32732789	          0.24594362	          0.16103665	          0.22969468	          0.05950687	          0.08363862	          0.10023941	          0.05000063	          0.13665319	          0.32505337	          0.11937241	          0.11937328	          0.73615142	          0.20354287	          0.11914102	          0.07103893	          0.07104611	          0.14108798	          0.11235039	          0.07081770	          0.07081804	          0.06384403	          0.05000004	          0.05000005	          0.05000007	          0.52968707	          0.29855071	          0.20749891	          0.61808856	          0.69752582	          0.58910202	          0.07330738	          0.13502061	          0.05001869	          0.14573761	          0.05035947	          0.05950510	          0.29500966	          0.09285130	          0.05058028	          0.05001472	          0.05278778	          0.05950626	          0.05000028	          0.05000178	          0.12986820	          0.63101936	          0.45840702	          0.25861730	          0.19449004	          0.23266698	          0.05000370	          0.05001732	          0.05925891	          0.05949816	          0.05950913	          0.05000012	          0.42357160	          0.05950532	          0.05950500	          0.05950472	          0.43085165	          0.12067086	          0.12089385	          0.09936776	          0.40865120	          0.60784608	          0.22866176	          0.13753742	          0.81815152	          0.25268150	          0.34251268	          0.41918998	          0.22940231	          0.46096011	          0.05000007	          0.05950554	          0.06916516	          0.05058585	          0.05000008	
          1.74517161	         -2.92399755	          3.56233470	         -9.98096786	          2.33141996	          0.89069905	          0.00842995	         33.23187624	          1.15451535	         -9.78760498	        -12.93225421	         -2.45389591	         -6.98357387	        -18.83425580	        -21.78617501	          6.67309804	          1.74777594	         -7.49172787	        -16.73227085	          3.52603548	         -0.19221752	         -3.81131167	         26.96496036	         -4.57234692	         -1.37636128	          1.96051220	         -8.77730788	        -13.45466871	         10.36026302	          6.90427219	        -13.64963623	         19.37652306	         18.02968075	         48.13385658	         86.51662706	         86.51662706	          0.28752944	          0.33213091	          0.38474685	          0.36342560	          0.32327132	          0.31203539	          0.14172216	          0.14723386	          0.10122099	          0.09639272	          0.08428362	          0.16342458	          0.27504113	          0.20665718	          0.14446233	          0.28712115	          0.05000161	          0.07027927	          0.22897898	          0.22681085	          0.25139091	          0.40154927	          0.10030405	          0.10030479	          0.61855975	          0.17102952	          0.18708470	          0.05969128	          0.05969732	          0.11855080	          0.09440371	          0.05950538	          0.05950568	          0.05364567	          0.06282407	          0.07709870	          0.07021755	          0.54933320	          0.25086071	          0.21254771	          0.51935609	          0.76282622	          0.71504994	          0.11912609	          0.17832632	          0.05000004	          0.12820775	          0.05000012	          0.05000007	          0.24788563	          0.07801976	          0.05000033	          0.05007711	          0.05004214	          0.05000130	          0.05004441	          0.05000213	          0.36015006	          0.57025856	          0.38518198	          0.21730731	          0.16342482	          0.26516363	          0.05950641	          0.05000209	          0.05000232	          0.05000139	          0.05000391	          0.05950597	          0.56994706	          0.05000012	          0.05000020	          0.05000056	          0.36202865	          0.10145299	          0.10271114	          0.08829169	          0.37565257	          0.55924272	          0.19213568	          0.11556740	          0.72406954	          0.21231904	          0.48808717	          0.42071566	          0.19275805	          0.69380093	          0.05000012	          0.05000022	          0.07693535	          0.05000000	          0.05000022	
